<svg xmlns="http://www.w3.org/2000/svg" width="24" height="24" fill="#9197b3" xmlns:v="https://vecta.io/nano"><path d="M12 22.75c-.63 0-1.22-.24-1.66-.69l-1.52-1.52a1.14 1.14 0 0 0-.6-.25H6.06a2.35 2.35 0 0 1-2.35-2.35v-2.16a1.14 1.14 0 0 0-.25-.6l-1.52-1.52A2.34 2.34 0 0 1 1.25 12c0-.63.24-1.22.69-1.66l1.52-1.52a1.14 1.14 0 0 0 .25-.6V6.06a2.35 2.35 0 0 1 2.35-2.35h2.16a1.14 1.14 0 0 0 .6-.25l1.52-1.52c.88-.88 2.44-.88 3.32 0l1.52 1.52a1.14 1.14 0 0 0 .6.25h2.16a2.35 2.35 0 0 1 2.35 2.35v2.16a1.14 1.14 0 0 0 .25.6l1.52 1.52c.44.44.69 1.03.69 1.66s-.24 1.22-.69 1.66l-1.52 1.52a1.14 1.14 0 0 0-.25.6v2.16a2.35 2.35 0 0 1-2.35 2.35h-2.16a1.14 1.14 0 0 0-.6.25l-1.52 1.52c-.44.45-1.03.69-1.66.69zm-7.48-8.63c.4.4.69 1.1.69 1.66v2.16a.85.85 0 0 0 .85.85h2.16c.56 0 1.26.29 1.66.69L11.4 21a.87.87 0 0 0 1.2 0l1.52-1.52c.4-.4 1.1-.69 1.66-.69h2.16a.85.85 0 0 0 .85-.85v-2.16c0-.56.29-1.26.69-1.66L21 12.6a.84.84 0 0 0 0-1.2l-1.52-1.52c-.4-.4-.69-1.1-.69-1.66V6.06a.85.85 0 0 0-.85-.85h-2.16c-.56 0-1.26-.29-1.66-.69L12.6 3a.87.87 0 0 0-1.2 0L9.88 4.52c-.4.4-1.1.69-1.66.69H6.06a.85.85 0 0 0-.85.85v2.16c0 .56-.29 1.26-.69 1.66L3 11.4a.84.84 0 0 0 0 1.2l1.52 1.52zM15 16c-.56 0-1.01-.45-1.01-1s.45-1 1-1 1 .45 1 1-.44 1-.99 1zm-5.99-6C8.45 10 8 9.55 8 9s.45-1 1-1 1 .45 1 1-.44 1-.99 1zm-.011 5.75a.74.74 0 0 1-.53-.22c-.29-.29-.29-.77 0-1.06l6-6c.29-.29.77-.29 1.06 0s.29.77 0 1.06l-6 6a.74.74 0 0 1-.53.22z"/></svg>